<svg width="25" height="24" viewBox="0 0 25 24" fill="none" xmlns="http://www.w3.org/2000/svg">
<path d="M9.16663 21V13.6C9.16663 13.04 9.16663 12.7599 9.27562 12.546C9.37149 12.3579 9.52447 12.2049 9.71264 12.109C9.92655 12 10.2066 12 10.7666 12H13.5666C14.1267 12 14.4067 12 14.6206 12.109C14.8088 12.2049 14.9618 12.3579 15.0576 12.546C15.1666 12.7599 15.1666 13.04 15.1666 13.6V21M11.1843 2.76403L4.40202 8.03916C3.94865 8.39178 3.72196 8.56809 3.55865 8.78889C3.41399 8.98447 3.30623 9.20481 3.24065 9.43908C3.16663 9.70355 3.16663 9.99073 3.16663 10.5651V17.8C3.16663 18.9201 3.16663 19.4802 3.38461 19.908C3.57636 20.2843 3.88232 20.5903 4.25864 20.782C4.68647 21 5.24652 21 6.36663 21H17.9666C19.0867 21 19.6468 21 20.0746 20.782C20.4509 20.5903 20.7569 20.2843 20.9486 19.908C21.1666 19.4802 21.1666 18.9201 21.1666 17.8V10.5651C21.1666 9.99073 21.1666 9.70355 21.0926 9.43908C21.027 9.20481 20.9193 8.98447 20.7746 8.78889C20.6113 8.56809 20.3846 8.39178 19.9312 8.03916L13.1489 2.76403C12.7976 2.49078 12.6219 2.35415 12.428 2.30163C12.2568 2.25529 12.0764 2.25529 11.9053 2.30163C11.7113 2.35415 11.5356 2.49078 11.1843 2.76403Z" stroke="black" stroke-width="1.5" stroke-linecap="round" stroke-linejoin="round"/>
</svg>
