<svg width="40" height="40" viewBox="0 0 40 40" fill="none" xmlns="http://www.w3.org/2000/svg">
<path fill-rule="evenodd" clip-rule="evenodd" d="M3.33334 20C3.33334 10.795 10.795 3.33334 20 3.33334C29.205 3.33334 36.6667 10.795 36.6667 20C36.6667 29.205 29.205 36.6667 20 36.6667C10.795 36.6667 3.33334 29.205 3.33334 20ZM15 13.3333C14.337 13.3333 13.7011 13.5967 13.2322 14.0656C12.7634 14.5344 12.5 15.1703 12.5 15.8333V15.85C12.5 16.5131 12.7634 17.1489 13.2322 17.6178C13.7011 18.0866 14.337 18.35 15 18.35H15.0167C15.6797 18.35 16.3156 18.0866 16.7844 17.6178C17.2533 17.1489 17.5167 16.5131 17.5167 15.85V15.8333C17.5167 15.1703 17.2533 14.5344 16.7844 14.0656C16.3156 13.5967 15.6797 13.3333 15.0167 13.3333H15ZM25 13.3333C24.337 13.3333 23.7011 13.5967 23.2322 14.0656C22.7634 14.5344 22.5 15.1703 22.5 15.8333V15.85C22.5 16.5131 22.7634 17.1489 23.2322 17.6178C23.7011 18.0866 24.337 18.35 25 18.35H25.0167C25.6797 18.35 26.3156 18.0866 26.7844 17.6178C27.2533 17.1489 27.5167 16.5131 27.5167 15.85V15.8333C27.5167 15.1703 27.2533 14.5344 26.7844 14.0656C26.3156 13.5967 25.6797 13.3333 25.0167 13.3333H25ZM13.3333 25C13.3333 24.558 13.5089 24.1341 13.8215 23.8215C14.1341 23.5089 14.558 23.3333 15 23.3333H25C25.442 23.3333 25.866 23.5089 26.1785 23.8215C26.4911 24.1341 26.6667 24.558 26.6667 25C26.6667 25.442 26.4911 25.866 26.1785 26.1785C25.866 26.4911 25.442 26.6667 25 26.6667H15C14.558 26.6667 14.1341 26.4911 13.8215 26.1785C13.5089 25.866 13.3333 25.442 13.3333 25Z" fill="#7DE4EA"/>
</svg>
