<svg width="41" height="40" viewBox="0 0 41 40" fill="none" xmlns="http://www.w3.org/2000/svg">
<path d="M32.8742 7.62578C31.2521 5.98763 29.3223 4.68612 27.1957 3.79603C25.0691 2.90594 22.7875 2.44481 20.4822 2.43914C18.1768 2.43347 15.893 2.88336 13.762 3.76297C11.631 4.64258 9.69487 5.93457 8.06472 7.56472C6.43457 9.19487 5.14258 11.131 4.26297 13.262C3.38336 15.393 2.93347 17.6768 2.93914 19.9822C2.94481 22.2875 3.40594 24.5691 4.29603 26.6957C5.18612 28.8223 6.48763 30.7521 8.12578 32.3742C9.74789 34.0124 11.6777 35.3139 13.8043 36.204C15.9309 37.0941 18.2125 37.5552 20.5178 37.5609C22.8232 37.5665 25.107 37.1166 27.238 36.237C29.369 35.3574 31.3051 34.0654 32.9353 32.4353C34.5654 30.8051 35.8574 28.869 36.737 26.738C37.6166 24.607 38.0665 22.3232 38.0609 20.0178C38.0552 17.7125 37.5941 15.4309 36.704 13.3043C35.8139 11.1777 34.5124 9.24789 32.8742 7.62578ZM14.875 16.25C15.2458 16.25 15.6084 16.36 15.9167 16.566C16.225 16.772 16.4654 17.0649 16.6073 17.4075C16.7492 17.7501 16.7863 18.1271 16.714 18.4908C16.6416 18.8545 16.463 19.1886 16.2008 19.4508C15.9386 19.713 15.6045 19.8916 15.2408 19.964C14.8771 20.0363 14.5001 19.9992 14.1575 19.8573C13.8149 19.7154 13.522 19.475 13.316 19.1667C13.11 18.8584 13 18.4958 13 18.125C12.9994 17.8786 13.0475 17.6345 13.1415 17.4067C13.2355 17.179 13.3736 16.972 13.5478 16.7978C13.722 16.6236 13.929 16.4855 14.1567 16.3915C14.3845 16.2975 14.6286 16.2494 14.875 16.25ZM27.9742 24.5445C27.0367 27.693 24.0523 30 20.5039 30C16.9555 30 13.9711 27.693 13.0258 24.5445C12.9993 24.4508 12.9952 24.3521 13.0136 24.2565C13.0321 24.1608 13.0727 24.0708 13.1321 23.9936C13.1915 23.9164 13.2682 23.8542 13.3559 23.8119C13.4437 23.7696 13.5401 23.7484 13.6375 23.75H27.3633C27.4606 23.7485 27.5569 23.7698 27.6446 23.8122C27.7322 23.8545 27.8088 23.9168 27.8681 23.994C27.9275 24.0711 27.968 24.1611 27.9864 24.2567C28.0048 24.3523 28.0006 24.4508 27.9742 24.5445ZM26.125 20C25.7542 20 25.3916 19.89 25.0833 19.684C24.775 19.478 24.5346 19.1851 24.3927 18.8425C24.2508 18.4999 24.2137 18.1229 24.286 17.7592C24.3584 17.3955 24.537 17.0614 24.7992 16.7992C25.0614 16.537 25.3955 16.3584 25.7592 16.286C26.1229 16.2137 26.4999 16.2508 26.8425 16.3927C27.1851 16.5346 27.478 16.775 27.684 17.0833C27.89 17.3916 28 17.7542 28 18.125C28.0006 18.3714 27.9525 18.6155 27.8585 18.8433C27.7645 19.071 27.6264 19.278 27.4522 19.4522C27.278 19.6264 27.071 19.7645 26.8433 19.8585C26.6155 19.9525 26.3714 20.0006 26.125 20Z" fill="#FFCF30"/>
</svg>
