<svg width="40" height="40" viewBox="0 0 40 40" fill="none" xmlns="http://www.w3.org/2000/svg">
<path d="M20 25.9167L21.9167 27.8333C22.0833 28 22.2778 28.0833 22.5 28.0833C22.7222 28.0833 22.9167 28 23.0833 27.8333L25 25.9167L25.75 26.6667C26 26.9167 26.2917 27.0417 26.625 27.0417C26.9583 27.0417 27.25 26.9167 27.5 26.6667C27.75 26.4167 27.875 26.125 27.875 25.7917C27.875 25.4583 27.75 25.1667 27.5 24.9167L25.5833 23C25.4167 22.8333 25.2222 22.75 25 22.75C24.7778 22.75 24.5833 22.8333 24.4167 23L22.5 24.9167L20.5833 23C20.4167 22.8333 20.2222 22.75 20 22.75C19.7778 22.75 19.5833 22.8333 19.4167 23L17.5 24.9167L15.5833 23C15.4167 22.8333 15.2222 22.75 15 22.75C14.7778 22.75 14.5833 22.8333 14.4167 23L12.5 24.9167C12.25 25.1667 12.125 25.4583 12.125 25.7917C12.125 26.125 12.25 26.4167 12.5 26.6667C12.75 26.9167 13.0417 27.0417 13.375 27.0417C13.7083 27.0417 14 26.9167 14.25 26.6667L15 25.9167L16.9167 27.8333C17.0833 28 17.2778 28.0833 17.5 28.0833C17.7222 28.0833 17.9167 28 18.0833 27.8333L20 25.9167ZM14.125 16.6667L11.9583 18.25C11.6806 18.4722 11.5072 18.75 11.4383 19.0833C11.3695 19.4167 11.4456 19.7222 11.6667 20C11.8878 20.2778 12.1656 20.4517 12.5 20.5217C12.8345 20.5917 13.14 20.515 13.4167 20.2917L17.4583 17.3333C17.6806 17.1667 17.7917 16.9444 17.7917 16.6667C17.7917 16.3889 17.6806 16.1667 17.4583 16L13.4167 13.0417C13.1389 12.8194 12.8333 12.7428 12.5 12.8117C12.1667 12.8806 11.8889 13.0544 11.6667 13.3333C11.4445 13.6122 11.3611 13.9178 11.4167 14.25C11.4722 14.5822 11.6528 14.86 11.9583 15.0833L14.125 16.6667ZM25.875 16.6667L28.0417 15.0833C28.3195 14.8611 28.4933 14.5833 28.5633 14.25C28.6333 13.9167 28.5567 13.6111 28.3333 13.3333C28.11 13.0556 27.8322 12.8822 27.5 12.8133C27.1678 12.7444 26.8622 12.8206 26.5833 13.0417L22.5417 16C22.3195 16.1667 22.2083 16.3889 22.2083 16.6667C22.2083 16.9444 22.3195 17.1667 22.5417 17.3333L26.5833 20.2917C26.8611 20.5139 27.1667 20.5906 27.5 20.5217C27.8333 20.4528 28.1111 20.2789 28.3333 20C28.5556 19.7211 28.6389 19.4156 28.5833 19.0833C28.5278 18.7511 28.3472 18.4733 28.0417 18.25L25.875 16.6667ZM20 36.6667C17.6945 36.6667 15.5278 36.2289 13.5 35.3533C11.4722 34.4778 9.70835 33.2906 8.20835 31.7917C6.70835 30.2928 5.52112 28.5289 4.64668 26.5C3.77223 24.4711 3.33446 22.3044 3.33335 20C3.33223 17.6956 3.77001 15.5289 4.64668 13.5C5.52335 11.4711 6.71057 9.70723 8.20835 8.20834C9.70612 6.70945 11.47 5.52223 13.5 4.64667C15.53 3.77111 17.6967 3.33334 20 3.33334C22.3033 3.33334 24.47 3.77111 26.5 4.64667C28.53 5.52223 30.2939 6.70945 31.7917 8.20834C33.2895 9.70723 34.4772 11.4711 35.355 13.5C36.2328 15.5289 36.67 17.6956 36.6667 20C36.6633 22.3044 36.2256 24.4711 35.3533 26.5C34.4811 28.5289 33.2939 30.2928 31.7917 31.7917C30.2895 33.2906 28.5256 34.4783 26.5 35.355C24.4745 36.2317 22.3078 36.6689 20 36.6667Z" fill="#FF2727"/>
</svg>
