<svg width="40" height="40" viewBox="0 0 40 40" fill="none" xmlns="http://www.w3.org/2000/svg">
<path d="M28.3333 5.56667C30.8471 7.01809 32.9382 9.10087 34.3997 11.6088C35.8612 14.1168 36.6423 16.963 36.6657 19.8656C36.6892 22.7682 35.9541 25.6266 34.5334 28.1578C33.1126 30.6891 31.0554 32.8054 28.5654 34.2972C26.0754 35.789 23.239 36.6047 20.3368 36.6634C17.4347 36.7222 14.5676 36.0219 12.0193 34.6321C9.47094 33.2422 7.3298 31.2109 5.80779 28.7392C4.28578 26.2675 3.43569 23.4412 3.34168 20.54L3.33334 20L3.34168 19.46C3.43502 16.5816 4.27259 13.7766 5.77274 11.3183C7.2729 8.86004 9.38443 6.83242 11.9015 5.43314C14.4186 4.03385 17.2553 3.31066 20.135 3.33406C23.0148 3.35746 25.8394 4.12666 28.3333 5.56667ZM20 22C19.0024 21.9999 18.0147 22.1989 17.095 22.5852C16.1752 22.9716 15.3417 23.5375 14.6433 24.25C14.4865 24.4055 14.3621 24.5906 14.2774 24.7946C14.1927 24.9986 14.1494 25.2174 14.15 25.4383C14.1506 25.6591 14.1951 25.8777 14.2809 26.0812C14.3668 26.2847 14.4922 26.4692 14.6499 26.6238C14.8076 26.7784 14.9945 26.9001 15.1997 26.9819C15.4049 27.0637 15.6242 27.1039 15.8451 27.1001C16.0659 27.0963 16.2838 27.0487 16.4861 26.96C16.6884 26.8713 16.871 26.7432 17.0233 26.5833C17.4113 26.1872 17.8744 25.8726 18.3856 25.6577C18.8967 25.4429 19.4456 25.3322 20 25.3322C20.5545 25.3322 21.1033 25.4429 21.6145 25.6577C22.1256 25.8726 22.5887 26.1872 22.9767 26.5833C23.2877 26.8916 23.7075 27.0651 24.1454 27.0663C24.5833 27.0675 25.0041 26.8964 25.3168 26.5898C25.6295 26.2832 25.809 25.8659 25.8164 25.4281C25.8239 24.9902 25.6587 24.567 25.3567 24.25C24.6583 23.5375 23.8249 22.9716 22.9051 22.5852C21.9853 22.1989 20.9976 21.9999 20 22ZM15.0167 15L14.805 15.0117C14.3999 15.0598 14.0266 15.2549 13.7557 15.5599C13.4848 15.865 13.3352 16.2587 13.3352 16.6667C13.3352 17.0746 13.4848 17.4684 13.7557 17.7734C14.0266 18.0784 14.3999 18.2735 14.805 18.3217L15 18.3333L15.2117 18.3217C15.6168 18.2735 15.9901 18.0784 16.261 17.7734C16.5319 17.4684 16.6815 17.0746 16.6815 16.6667C16.6815 16.2587 16.5319 15.865 16.261 15.5599C15.9901 15.2549 15.6168 15.0598 15.2117 15.0117L15.0167 15ZM25.0167 15L24.805 15.0117C24.3999 15.0598 24.0266 15.2549 23.7557 15.5599C23.4848 15.865 23.3352 16.2587 23.3352 16.6667C23.3352 17.0746 23.4848 17.4684 23.7557 17.7734C24.0266 18.0784 24.3999 18.2735 24.805 18.3217L25 18.3333L25.2117 18.3217C25.6168 18.2735 25.9901 18.0784 26.261 17.7734C26.5319 17.4684 26.6815 17.0746 26.6815 16.6667C26.6815 16.2587 26.5319 15.865 26.261 15.5599C25.9901 15.2549 25.6168 15.0598 25.2117 15.0117L25.0167 15Z" fill="#4370F2"/>
</svg>
