<svg width="25" height="24" viewBox="0 0 25 24" fill="none" xmlns="http://www.w3.org/2000/svg">
<path d="M21.377 15.89C20.7409 17.3945 19.7458 18.7202 18.4789 19.7513C17.212 20.7824 15.7118 21.4874 14.1095 21.8048C12.5071 22.1221 10.8515 22.0422 9.28718 21.5718C7.7229 21.1015 6.29765 20.2551 5.13605 19.1067C3.97444 17.9582 3.11184 16.5428 2.62366 14.984C2.13549 13.4252 2.03659 11.7705 2.33563 10.1646C2.63466 8.55879 3.32253 7.05064 4.33908 5.77204C5.35563 4.49344 6.66991 3.48333 8.16703 2.83001M21.4058 8.17317C21.8061 9.13964 22.0517 10.1614 22.135 11.2009C22.1556 11.4577 22.1659 11.5861 22.1149 11.7017C22.0723 11.7983 21.988 11.8898 21.895 11.9399C21.7838 12 21.6449 12 21.367 12H12.967C12.687 12 12.547 12 12.44 11.9455C12.346 11.8976 12.2695 11.8211 12.2215 11.727C12.167 11.62 12.167 11.48 12.167 11.2V2.80001C12.167 2.52214 12.167 2.38321 12.2271 2.27199C12.2773 2.17909 12.3687 2.0947 12.4653 2.0521C12.581 2.00111 12.7094 2.0114 12.9662 2.03199C14.0057 2.11533 15.0274 2.36089 15.9939 2.76121C17.2071 3.26376 18.3095 4.00035 19.2381 4.92894C20.1667 5.85753 20.9033 6.95992 21.4058 8.17317Z" stroke="black" stroke-width="1.5" stroke-linecap="round" stroke-linejoin="round"/>
</svg>
