<svg width="25" height="24" viewBox="0 0 25 24" fill="none" xmlns="http://www.w3.org/2000/svg">
<path d="M9.56179 19.3711L10.1462 20.6856C10.32 21.0768 10.6035 21.4093 10.9625 21.6426C11.3214 21.8759 11.7403 22.0001 12.1685 22C12.5966 22.0001 13.0155 21.8759 13.3745 21.6426C13.7334 21.4093 14.0169 21.0768 14.1907 20.6856L14.7751 19.3711C14.9832 18.9047 15.3331 18.5159 15.7751 18.26C16.2199 18.0034 16.7345 17.8941 17.2451 17.9478L18.6751 18.1C19.1008 18.145 19.5304 18.0656 19.9118 17.8713C20.2932 17.6771 20.6101 17.3763 20.824 17.0056C21.0382 16.635 21.1402 16.2103 21.1177 15.7829C21.0953 15.3555 20.9492 14.9438 20.6973 14.5978L19.8507 13.4344C19.5492 13.0171 19.3881 12.5148 19.3907 12C19.3906 11.4866 19.5532 10.9864 19.8551 10.5711L20.7018 9.40778C20.9537 9.06175 21.0997 8.65007 21.1222 8.22267C21.1447 7.79528 21.0426 7.37054 20.8285 7C20.6146 6.62923 20.2977 6.32849 19.9163 6.13423C19.5348 5.93997 19.1052 5.86053 18.6796 5.90556L17.2496 6.05778C16.7389 6.11141 16.2244 6.00212 15.7796 5.74556C15.3367 5.48825 14.9866 5.09736 14.7796 4.62889L14.1907 3.31444C14.0169 2.92317 13.7334 2.59072 13.3745 2.3574C13.0155 2.12408 12.5966 1.99993 12.1685 2C11.7403 1.99993 11.3214 2.12408 10.9625 2.3574C10.6035 2.59072 10.32 2.92317 10.1462 3.31444L9.56179 4.62889C9.35472 5.09736 9.00466 5.48825 8.56179 5.74556C8.11701 6.00212 7.60246 6.11141 7.09179 6.05778L5.65735 5.90556C5.23168 5.86053 4.80208 5.93997 4.42066 6.13423C4.03924 6.32849 3.72236 6.62923 3.50846 7C3.29428 7.37054 3.19224 7.79528 3.21472 8.22267C3.23721 8.65007 3.38325 9.06175 3.63512 9.40778L4.48179 10.5711C4.78373 10.9864 4.94633 11.4866 4.94623 12C4.94633 12.5134 4.78373 13.0137 4.48179 13.4289L3.63512 14.5922C3.38325 14.9382 3.23721 15.3499 3.21472 15.7773C3.19224 16.2047 3.29428 16.6295 3.50846 17C3.72257 17.3706 4.03949 17.6712 4.42085 17.8654C4.80222 18.0596 5.23171 18.1392 5.65735 18.0944L7.08735 17.9422C7.59801 17.8886 8.11256 17.9979 8.55735 18.2544C9.00187 18.511 9.35355 18.902 9.56179 19.3711Z" stroke="black" stroke-width="1.5" stroke-linecap="round" stroke-linejoin="round"/>
<path d="M12.1667 15C13.8235 15 15.1667 13.6569 15.1667 12C15.1667 10.3431 13.8235 9 12.1667 9C10.5098 9 9.16667 10.3431 9.16667 12C9.16667 13.6569 10.5098 15 12.1667 15Z" stroke="black" stroke-width="1.5" stroke-linecap="round" stroke-linejoin="round"/>
</svg>
